<mxfile host="Electron" modified="2024-06-26T09:44:55.749Z" agent="Mozilla/5.0 (Windows NT 10.0; Win64; x64) AppleWebKit/537.36 (KHTML, like Gecko) draw.io/24.2.5 Chrome/120.0.6099.109 Electron/28.1.0 Safari/537.36" etag="fB0H4zCypddoWVB-qCPn" version="24.2.5" type="device">
  <diagram name="페이지-1" id="jZoVqIEIvhbJD9i4uvrA">
    <mxGraphModel dx="1994" dy="1443" grid="0" gridSize="10" guides="1" tooltips="1" connect="1" arrows="1" fold="1" page="0" pageScale="1" pageWidth="827" pageHeight="1169" math="0" shadow="0">
      <root>
        <mxCell id="0" />
        <mxCell id="1" parent="0" />
        <mxCell id="z9EmH8EO0fscNHD9WSlw-1" value="" style="rounded=0;whiteSpace=wrap;html=1;strokeWidth=2;dashed=1;" parent="1" vertex="1">
          <mxGeometry x="108" y="-95" width="1150" height="686" as="geometry" />
        </mxCell>
        <mxCell id="z9EmH8EO0fscNHD9WSlw-2" value="&lt;b&gt;&lt;font style=&quot;font-size: 15px;&quot;&gt;BRAM_Input&lt;/font&gt;&lt;/b&gt;" style="rounded=0;whiteSpace=wrap;html=1;strokeWidth=2;" parent="1" vertex="1">
          <mxGeometry x="173" y="188" width="111" height="65" as="geometry" />
        </mxCell>
        <mxCell id="z9EmH8EO0fscNHD9WSlw-3" style="edgeStyle=none;curved=1;rounded=0;orthogonalLoop=1;jettySize=auto;html=1;entryX=1;entryY=0.5;entryDx=0;entryDy=0;fontSize=12;startSize=8;endSize=8;" parent="1" source="z9EmH8EO0fscNHD9WSlw-1" target="z9EmH8EO0fscNHD9WSlw-1" edge="1">
          <mxGeometry relative="1" as="geometry" />
        </mxCell>
        <mxCell id="z9EmH8EO0fscNHD9WSlw-4" value="&lt;b&gt;&lt;font style=&quot;font-size: 15px;&quot;&gt;PU_RowMatrix&lt;/font&gt;&lt;/b&gt;" style="rounded=0;whiteSpace=wrap;html=1;strokeWidth=2;" parent="1" vertex="1">
          <mxGeometry x="611" y="132" width="154" height="112" as="geometry" />
        </mxCell>
        <mxCell id="z9EmH8EO0fscNHD9WSlw-5" value="&lt;b&gt;&lt;font style=&quot;font-size: 15px;&quot;&gt;Controller&lt;/font&gt;&lt;/b&gt;" style="rounded=0;whiteSpace=wrap;html=1;strokeWidth=2;" parent="1" vertex="1">
          <mxGeometry x="188" y="-46" width="419" height="112" as="geometry" />
        </mxCell>
        <mxCell id="z9EmH8EO0fscNHD9WSlw-6" value="&lt;b&gt;&lt;font style=&quot;font-size: 15px;&quot;&gt;Temp_Buffer&lt;/font&gt;&lt;/b&gt;" style="rounded=0;whiteSpace=wrap;html=1;strokeWidth=2;" parent="1" vertex="1">
          <mxGeometry x="1006" y="85" width="98" height="119" as="geometry" />
        </mxCell>
        <mxCell id="z9EmH8EO0fscNHD9WSlw-10" value="" style="endArrow=classic;html=1;rounded=0;fontSize=12;startSize=8;endSize=8;curved=0;entryX=0.003;entryY=0.325;entryDx=0;entryDy=0;entryPerimeter=0;strokeWidth=1.5;" parent="1" target="z9EmH8EO0fscNHD9WSlw-5" edge="1">
          <mxGeometry width="50" height="50" relative="1" as="geometry">
            <mxPoint x="65" y="-10" as="sourcePoint" />
            <mxPoint x="473" y="116" as="targetPoint" />
          </mxGeometry>
        </mxCell>
        <mxCell id="z9EmH8EO0fscNHD9WSlw-11" value="START" style="text;html=1;align=center;verticalAlign=middle;resizable=0;points=[];autosize=1;strokeColor=none;fillColor=none;fontSize=16;" parent="1" vertex="1">
          <mxGeometry x="-5" y="-25" width="69" height="31" as="geometry" />
        </mxCell>
        <mxCell id="z9EmH8EO0fscNHD9WSlw-12" value="RSTN" style="text;html=1;align=center;verticalAlign=middle;resizable=0;points=[];autosize=1;strokeColor=none;fillColor=none;fontSize=16;" parent="1" vertex="1">
          <mxGeometry x="-1.5" y="17" width="62" height="31" as="geometry" />
        </mxCell>
        <mxCell id="z9EmH8EO0fscNHD9WSlw-13" value="" style="endArrow=classic;html=1;rounded=0;fontSize=12;startSize=8;endSize=8;curved=0;entryX=0.003;entryY=0.325;entryDx=0;entryDy=0;entryPerimeter=0;strokeWidth=1.5;" parent="1" edge="1">
          <mxGeometry width="50" height="50" relative="1" as="geometry">
            <mxPoint x="65" y="31" as="sourcePoint" />
            <mxPoint x="188" y="31" as="targetPoint" />
          </mxGeometry>
        </mxCell>
        <mxCell id="z9EmH8EO0fscNHD9WSlw-18" value="" style="endArrow=classic;html=1;rounded=0;fontSize=12;startSize=8;endSize=8;curved=0;entryX=0;entryY=0.25;entryDx=0;entryDy=0;exitX=0.273;exitY=1.025;exitDx=0;exitDy=0;exitPerimeter=0;strokeWidth=1.5;" parent="1" target="z9EmH8EO0fscNHD9WSlw-2" edge="1">
          <mxGeometry width="50" height="50" relative="1" as="geometry">
            <mxPoint x="300.38699999999994" y="65.99999999999994" as="sourcePoint" />
            <mxPoint x="182" y="183.45" as="targetPoint" />
            <Array as="points">
              <mxPoint x="300" y="107.19999999999999" />
              <mxPoint x="136" y="107" />
              <mxPoint x="136" y="204" />
            </Array>
          </mxGeometry>
        </mxCell>
        <mxCell id="z9EmH8EO0fscNHD9WSlw-19" value="&lt;font style=&quot;font-size: 14px;&quot;&gt;BRAM_CTRL&lt;/font&gt;" style="text;html=1;align=center;verticalAlign=middle;resizable=0;points=[];autosize=1;strokeColor=none;fillColor=none;fontSize=16;" parent="1" vertex="1">
          <mxGeometry x="159" y="74" width="103" height="31" as="geometry" />
        </mxCell>
        <mxCell id="z9EmH8EO0fscNHD9WSlw-23" value="" style="endArrow=classic;html=1;rounded=0;fontSize=12;startSize=8;endSize=8;curved=0;strokeWidth=1.5;exitX=1.006;exitY=0.418;exitDx=0;exitDy=0;exitPerimeter=0;entryX=0.25;entryY=1;entryDx=0;entryDy=0;" parent="1" source="z9EmH8EO0fscNHD9WSlw-2" target="-nnjuojDJIeQV_9DqMVr-33" edge="1">
          <mxGeometry width="50" height="50" relative="1" as="geometry">
            <mxPoint x="300.996" y="218.9950000000001" as="sourcePoint" />
            <mxPoint x="398" y="215" as="targetPoint" />
          </mxGeometry>
        </mxCell>
        <mxCell id="glP6lnZT-jmc0-or7dro-16" value="&lt;font style=&quot;font-size: 21px;&quot;&gt;/&lt;/font&gt;" style="edgeLabel;html=1;align=center;verticalAlign=middle;resizable=0;points=[];" parent="z9EmH8EO0fscNHD9WSlw-23" vertex="1" connectable="0">
          <mxGeometry x="0.3874" y="-2" relative="1" as="geometry">
            <mxPoint x="-50" y="-3" as="offset" />
          </mxGeometry>
        </mxCell>
        <mxCell id="z9EmH8EO0fscNHD9WSlw-24" value="&lt;font style=&quot;font-size: 14px;&quot;&gt;INPUT_DATA&lt;/font&gt;" style="text;html=1;align=center;verticalAlign=middle;resizable=0;points=[];autosize=1;strokeColor=none;fillColor=none;fontSize=16;" parent="1" vertex="1">
          <mxGeometry x="284.00000000000006" y="177" width="103" height="31" as="geometry" />
        </mxCell>
        <mxCell id="z9EmH8EO0fscNHD9WSlw-28" value="" style="endArrow=classic;html=1;rounded=0;fontSize=12;startSize=8;endSize=8;curved=0;strokeWidth=1.5;entryX=0.002;entryY=0.551;entryDx=0;entryDy=0;entryPerimeter=0;" parent="1" target="z9EmH8EO0fscNHD9WSlw-29" edge="1">
          <mxGeometry width="50" height="50" relative="1" as="geometry">
            <mxPoint x="610" y="-13" as="sourcePoint" />
            <mxPoint x="1101" y="-13.652963671128191" as="targetPoint" />
          </mxGeometry>
        </mxCell>
        <mxCell id="z9EmH8EO0fscNHD9WSlw-29" value="DONE_ROW" style="text;html=1;align=center;verticalAlign=middle;resizable=0;points=[];autosize=1;strokeColor=none;fillColor=none;fontSize=16;" parent="1" vertex="1">
          <mxGeometry x="1308" y="-32" width="112" height="31" as="geometry" />
        </mxCell>
        <mxCell id="z9EmH8EO0fscNHD9WSlw-30" value="" style="endArrow=classic;html=1;rounded=0;fontSize=12;startSize=8;endSize=8;curved=0;strokeWidth=1.5;exitX=0.532;exitY=0.935;exitDx=0;exitDy=0;exitPerimeter=0;entryX=-0.01;entryY=0.169;entryDx=0;entryDy=0;entryPerimeter=0;" parent="1" target="z9EmH8EO0fscNHD9WSlw-6" edge="1">
          <mxGeometry width="50" height="50" relative="1" as="geometry">
            <mxPoint x="541" y="66" as="sourcePoint" />
            <mxPoint x="822" y="106" as="targetPoint" />
            <Array as="points">
              <mxPoint x="541" y="105" />
            </Array>
          </mxGeometry>
        </mxCell>
        <mxCell id="z9EmH8EO0fscNHD9WSlw-35" value="&lt;font style=&quot;font-size: 14px;&quot;&gt;BUF_DATA&lt;/font&gt;" style="text;html=1;align=center;verticalAlign=middle;resizable=0;points=[];autosize=1;strokeColor=none;fillColor=none;fontSize=16;" parent="1" vertex="1">
          <mxGeometry x="1098" y="70.5" width="89" height="31" as="geometry" />
        </mxCell>
        <mxCell id="glP6lnZT-jmc0-or7dro-17" value="&lt;font style=&quot;font-size: 15px;&quot;&gt;16&lt;/font&gt;" style="text;html=1;align=center;verticalAlign=middle;resizable=0;points=[];autosize=1;strokeColor=none;fillColor=none;" parent="1" vertex="1">
          <mxGeometry x="287" y="217" width="35" height="30" as="geometry" />
        </mxCell>
        <mxCell id="YjfATVuAR8jBf-zQzsOv-3" value="&lt;font style=&quot;font-size: 15px;&quot;&gt;64&lt;/font&gt;" style="text;html=1;align=center;verticalAlign=middle;resizable=0;points=[];autosize=1;strokeColor=none;fillColor=none;" parent="1" vertex="1">
          <mxGeometry x="1104" y="113" width="35" height="30" as="geometry" />
        </mxCell>
        <mxCell id="YjfATVuAR8jBf-zQzsOv-16" value="&lt;span style=&quot;font-size: 15px;&quot;&gt;&lt;b&gt;Bit_Split&lt;/b&gt;&lt;/span&gt;" style="rounded=1;whiteSpace=wrap;html=1;strokeWidth=2;" parent="1" vertex="1">
          <mxGeometry x="683" y="471" width="83" height="72" as="geometry" />
        </mxCell>
        <mxCell id="-nnjuojDJIeQV_9DqMVr-5" value="&lt;span style=&quot;font-size: 14px;&quot;&gt;BUF_CTRL&lt;/span&gt;" style="text;html=1;align=center;verticalAlign=middle;resizable=0;points=[];autosize=1;strokeColor=none;fillColor=none;fontSize=16;" parent="1" vertex="1">
          <mxGeometry x="790" y="74" width="90" height="31" as="geometry" />
        </mxCell>
        <mxCell id="-nnjuojDJIeQV_9DqMVr-7" value="&lt;b&gt;&lt;font style=&quot;font-size: 15px;&quot;&gt;PU_RowMatrix&lt;/font&gt;&lt;/b&gt;" style="rounded=0;whiteSpace=wrap;html=1;strokeWidth=2;" parent="1" vertex="1">
          <mxGeometry x="608" y="281" width="154" height="112" as="geometry" />
        </mxCell>
        <mxCell id="-nnjuojDJIeQV_9DqMVr-25" value="OUT" style="text;html=1;align=center;verticalAlign=middle;resizable=0;points=[];autosize=1;strokeColor=none;fillColor=none;fontSize=16;" parent="1" vertex="1">
          <mxGeometry x="1311" y="233" width="52" height="31" as="geometry" />
        </mxCell>
        <mxCell id="-nnjuojDJIeQV_9DqMVr-33" value="" style="shape=trapezoid;perimeter=trapezoidPerimeter;whiteSpace=wrap;html=1;fixedSize=1;rounded=0;strokeWidth=2;fontSize=14;rotation=90;" parent="1" vertex="1">
          <mxGeometry x="359" y="219" width="101.5" height="45" as="geometry" />
        </mxCell>
        <mxCell id="-nnjuojDJIeQV_9DqMVr-38" value="" style="shape=trapezoid;perimeter=trapezoidPerimeter;whiteSpace=wrap;html=1;fixedSize=1;rounded=0;strokeWidth=2;fontSize=14;rotation=90;" parent="1" vertex="1">
          <mxGeometry x="460.5" y="333" width="101.5" height="45" as="geometry" />
        </mxCell>
        <mxCell id="-nnjuojDJIeQV_9DqMVr-43" value="" style="shape=waypoint;sketch=0;fillStyle=solid;size=6;pointerEvents=1;points=[];fillColor=none;resizable=0;rotatable=0;perimeter=centerPerimeter;snapToPoint=1;strokeWidth=2;" parent="1" vertex="1">
          <mxGeometry x="444.5" y="224" width="20" height="20" as="geometry" />
        </mxCell>
        <mxCell id="-nnjuojDJIeQV_9DqMVr-44" value="" style="endArrow=none;html=1;rounded=0;strokeWidth=1.5;fontSize=15;exitX=0.434;exitY=-0.005;exitDx=0;exitDy=0;exitPerimeter=0;entryX=0.588;entryY=0.795;entryDx=0;entryDy=0;entryPerimeter=0;" parent="1" source="-nnjuojDJIeQV_9DqMVr-33" target="-nnjuojDJIeQV_9DqMVr-43" edge="1">
          <mxGeometry width="50" height="50" relative="1" as="geometry">
            <mxPoint x="520" y="281" as="sourcePoint" />
            <mxPoint x="570" y="231" as="targetPoint" />
          </mxGeometry>
        </mxCell>
        <mxCell id="-nnjuojDJIeQV_9DqMVr-46" value="" style="endArrow=classic;html=1;rounded=0;fontSize=12;startSize=8;endSize=8;curved=0;strokeWidth=1.5;entryX=0;entryY=0.75;entryDx=0;entryDy=0;jumpStyle=arc;" parent="1" target="z9EmH8EO0fscNHD9WSlw-4" edge="1">
          <mxGeometry width="50" height="50" relative="1" as="geometry">
            <mxPoint x="455" y="234" as="sourcePoint" />
            <mxPoint x="589.58" y="229.95499999999979" as="targetPoint" />
            <Array as="points">
              <mxPoint x="485" y="234" />
              <mxPoint x="485" y="216" />
            </Array>
          </mxGeometry>
        </mxCell>
        <mxCell id="-nnjuojDJIeQV_9DqMVr-50" value="" style="endArrow=classic;html=1;rounded=0;strokeWidth=1.5;fontSize=15;jumpStyle=arc;exitX=0.613;exitY=0.79;exitDx=0;exitDy=0;exitPerimeter=0;entryX=0.327;entryY=1.015;entryDx=0;entryDy=0;entryPerimeter=0;" parent="1" source="-nnjuojDJIeQV_9DqMVr-43" target="-nnjuojDJIeQV_9DqMVr-38" edge="1">
          <mxGeometry width="50" height="50" relative="1" as="geometry">
            <mxPoint x="482" y="308" as="sourcePoint" />
            <mxPoint x="532" y="258" as="targetPoint" />
            <Array as="points">
              <mxPoint x="455" y="338" />
            </Array>
          </mxGeometry>
        </mxCell>
        <mxCell id="-nnjuojDJIeQV_9DqMVr-55" value="" style="endArrow=classic;html=1;rounded=0;strokeWidth=1.5;fontSize=15;jumpStyle=arc;exitX=0;exitY=0.25;exitDx=0;exitDy=0;entryX=0.615;entryY=1.065;entryDx=0;entryDy=0;entryPerimeter=0;" parent="1" source="YjfATVuAR8jBf-zQzsOv-16" target="-nnjuojDJIeQV_9DqMVr-33" edge="1">
          <mxGeometry width="50" height="50" relative="1" as="geometry">
            <mxPoint x="532" y="265" as="sourcePoint" />
            <mxPoint x="582" y="215" as="targetPoint" />
            <Array as="points">
              <mxPoint x="337" y="489" />
              <mxPoint x="337" y="253" />
            </Array>
          </mxGeometry>
        </mxCell>
        <mxCell id="-nnjuojDJIeQV_9DqMVr-58" value="PU1_IN" style="text;html=1;strokeColor=none;fillColor=none;align=center;verticalAlign=middle;whiteSpace=wrap;rounded=0;fontSize=15;" parent="1" vertex="1">
          <mxGeometry x="547" y="178" width="60" height="30" as="geometry" />
        </mxCell>
        <mxCell id="-nnjuojDJIeQV_9DqMVr-64" value="&lt;font style=&quot;font-size: 21px;&quot;&gt;/&lt;/font&gt;" style="edgeLabel;html=1;align=center;verticalAlign=middle;resizable=0;points=[];" parent="1" vertex="1" connectable="0">
          <mxGeometry x="312.99878674924895" y="220.50117622311373" as="geometry">
            <mxPoint x="268" y="-5" as="offset" />
          </mxGeometry>
        </mxCell>
        <mxCell id="-nnjuojDJIeQV_9DqMVr-65" value="&lt;font style=&quot;font-size: 15px;&quot;&gt;16&lt;/font&gt;" style="text;html=1;align=center;verticalAlign=middle;resizable=0;points=[];autosize=1;strokeColor=none;fillColor=none;" parent="1" vertex="1">
          <mxGeometry x="565.5" y="223" width="35" height="30" as="geometry" />
        </mxCell>
        <mxCell id="-nnjuojDJIeQV_9DqMVr-66" value="" style="endArrow=classic;html=1;rounded=0;strokeWidth=1.5;fontSize=15;jumpStyle=arc;exitX=0.5;exitY=0;exitDx=0;exitDy=0;" parent="1" source="-nnjuojDJIeQV_9DqMVr-38" edge="1">
          <mxGeometry width="50" height="50" relative="1" as="geometry">
            <mxPoint x="532" y="352" as="sourcePoint" />
            <mxPoint x="606" y="356" as="targetPoint" />
          </mxGeometry>
        </mxCell>
        <mxCell id="-nnjuojDJIeQV_9DqMVr-70" value="&lt;font style=&quot;font-size: 14px;&quot;&gt;BUF_DATA[23:8]&lt;/font&gt;" style="text;html=1;align=center;verticalAlign=middle;resizable=0;points=[];autosize=1;strokeColor=none;fillColor=none;fontSize=16;" parent="1" vertex="1">
          <mxGeometry x="528" y="457" width="124" height="31" as="geometry" />
        </mxCell>
        <mxCell id="-nnjuojDJIeQV_9DqMVr-71" value="&lt;font style=&quot;font-size: 14px;&quot;&gt;BUF_DATA[55:40]&lt;/font&gt;" style="text;html=1;align=center;verticalAlign=middle;resizable=0;points=[];autosize=1;strokeColor=none;fillColor=none;fontSize=16;" parent="1" vertex="1">
          <mxGeometry x="528" y="491.5" width="132" height="31" as="geometry" />
        </mxCell>
        <mxCell id="-nnjuojDJIeQV_9DqMVr-72" value="" style="endArrow=classic;html=1;rounded=0;strokeWidth=1.5;fontSize=15;jumpStyle=arc;exitX=0;exitY=0.75;exitDx=0;exitDy=0;entryX=0.643;entryY=1.017;entryDx=0;entryDy=0;entryPerimeter=0;" parent="1" source="YjfATVuAR8jBf-zQzsOv-16" target="-nnjuojDJIeQV_9DqMVr-38" edge="1">
          <mxGeometry width="50" height="50" relative="1" as="geometry">
            <mxPoint x="645" y="303" as="sourcePoint" />
            <mxPoint x="486" y="340" as="targetPoint" />
            <Array as="points">
              <mxPoint x="426" y="525" />
              <mxPoint x="426" y="370" />
            </Array>
          </mxGeometry>
        </mxCell>
        <mxCell id="-nnjuojDJIeQV_9DqMVr-73" value="PU2_IN" style="text;html=1;strokeColor=none;fillColor=none;align=center;verticalAlign=middle;whiteSpace=wrap;rounded=0;fontSize=15;" parent="1" vertex="1">
          <mxGeometry x="541.5" y="322" width="60" height="30" as="geometry" />
        </mxCell>
        <mxCell id="-nnjuojDJIeQV_9DqMVr-74" value="&lt;font style=&quot;font-size: 15px;&quot;&gt;16&lt;/font&gt;" style="text;html=1;align=center;verticalAlign=middle;resizable=0;points=[];autosize=1;strokeColor=none;fillColor=none;" parent="1" vertex="1">
          <mxGeometry x="552" y="361" width="35" height="30" as="geometry" />
        </mxCell>
        <mxCell id="-nnjuojDJIeQV_9DqMVr-76" value="&lt;font style=&quot;font-size: 21px;&quot;&gt;/&lt;/font&gt;" style="edgeLabel;html=1;align=center;verticalAlign=middle;resizable=0;points=[];" parent="1" vertex="1" connectable="0">
          <mxGeometry x="304.49878674924895" y="361.0011762231137" as="geometry">
            <mxPoint x="268" y="-5" as="offset" />
          </mxGeometry>
        </mxCell>
        <mxCell id="-nnjuojDJIeQV_9DqMVr-83" value="" style="endArrow=none;html=1;rounded=0;strokeWidth=1.5;fontSize=15;jumpStyle=arc;exitDx=0;exitDy=0;exitPerimeter=0;entryX=1;entryY=0.5;entryDx=0;entryDy=0;startArrow=none;" parent="1" source="pK8zRwszBanWCM-Fg7gK-8" target="-nnjuojDJIeQV_9DqMVr-90" edge="1">
          <mxGeometry width="50" height="50" relative="1" as="geometry">
            <mxPoint x="753" y="231" as="sourcePoint" />
            <mxPoint x="803" y="181" as="targetPoint" />
          </mxGeometry>
        </mxCell>
        <mxCell id="-nnjuojDJIeQV_9DqMVr-88" value="" style="endArrow=none;html=1;rounded=0;strokeWidth=1.5;fontSize=15;jumpStyle=arc;entryX=0.231;entryY=-0.058;entryDx=0;entryDy=0;entryPerimeter=0;exitDx=0;exitDy=0;exitPerimeter=0;startArrow=none;" parent="1" source="pK8zRwszBanWCM-Fg7gK-14" target="-nnjuojDJIeQV_9DqMVr-90" edge="1">
          <mxGeometry width="50" height="50" relative="1" as="geometry">
            <mxPoint x="769" y="329" as="sourcePoint" />
            <mxPoint x="819" y="279" as="targetPoint" />
            <Array as="points">
              <mxPoint x="923" y="328" />
            </Array>
          </mxGeometry>
        </mxCell>
        <mxCell id="-nnjuojDJIeQV_9DqMVr-90" value="" style="triangle;whiteSpace=wrap;html=1;rounded=0;strokeWidth=0;fontSize=15;fillColor=#000000;direction=west;" parent="1" vertex="1">
          <mxGeometry x="913" y="171" width="13" height="20" as="geometry" />
        </mxCell>
        <mxCell id="-nnjuojDJIeQV_9DqMVr-93" value="" style="endArrow=classic;html=1;rounded=0;strokeWidth=1.5;fontSize=14;jumpStyle=arc;exitX=0;exitY=0.5;exitDx=0;exitDy=0;" parent="1" source="-nnjuojDJIeQV_9DqMVr-90" edge="1">
          <mxGeometry width="50" height="50" relative="1" as="geometry">
            <mxPoint x="743" y="265" as="sourcePoint" />
            <mxPoint x="1001" y="181" as="targetPoint" />
            <Array as="points" />
          </mxGeometry>
        </mxCell>
        <mxCell id="-nnjuojDJIeQV_9DqMVr-96" value="&lt;span style=&quot;font-size: 15px;&quot;&gt;256&lt;/span&gt;" style="text;html=1;align=center;verticalAlign=middle;resizable=0;points=[];autosize=1;strokeColor=none;fillColor=none;" parent="1" vertex="1">
          <mxGeometry x="761" y="187" width="43" height="30" as="geometry" />
        </mxCell>
        <mxCell id="-nnjuojDJIeQV_9DqMVr-98" value="&lt;font style=&quot;font-size: 15px;&quot;&gt;256&lt;/font&gt;" style="text;html=1;align=center;verticalAlign=middle;resizable=0;points=[];autosize=1;strokeColor=none;fillColor=none;" parent="1" vertex="1">
          <mxGeometry x="757" y="331" width="43" height="30" as="geometry" />
        </mxCell>
        <mxCell id="-nnjuojDJIeQV_9DqMVr-99" value="&lt;font style=&quot;font-size: 21px;&quot;&gt;/&lt;/font&gt;" style="edgeLabel;html=1;align=center;verticalAlign=middle;resizable=0;points=[];" parent="1" vertex="1" connectable="0">
          <mxGeometry x="687.9987867492489" y="188.00117622311373" as="geometry">
            <mxPoint x="268" y="-5" as="offset" />
          </mxGeometry>
        </mxCell>
        <mxCell id="-nnjuojDJIeQV_9DqMVr-100" value="&lt;font style=&quot;font-size: 15px;&quot;&gt;512&lt;/font&gt;" style="text;html=1;align=center;verticalAlign=middle;resizable=0;points=[];autosize=1;strokeColor=none;fillColor=none;" parent="1" vertex="1">
          <mxGeometry x="933" y="187" width="43" height="30" as="geometry" />
        </mxCell>
        <mxCell id="-nnjuojDJIeQV_9DqMVr-101" value="&lt;span style=&quot;font-size: 14px;&quot;&gt;PU_OUT&lt;/span&gt;" style="text;html=1;align=center;verticalAlign=middle;resizable=0;points=[];autosize=1;strokeColor=none;fillColor=none;fontSize=16;" parent="1" vertex="1">
          <mxGeometry x="761" y="147" width="75" height="31" as="geometry" />
        </mxCell>
        <mxCell id="-nnjuojDJIeQV_9DqMVr-102" value="" style="endArrow=classic;html=1;rounded=0;strokeWidth=1.5;fontSize=14;jumpStyle=arc;exitX=0.5;exitY=1;exitDx=0;exitDy=0;entryX=0;entryY=0.25;entryDx=0;entryDy=0;" parent="1" source="z9EmH8EO0fscNHD9WSlw-5" target="z9EmH8EO0fscNHD9WSlw-4" edge="1">
          <mxGeometry width="50" height="50" relative="1" as="geometry">
            <mxPoint x="592" y="282" as="sourcePoint" />
            <mxPoint x="642" y="232" as="targetPoint" />
            <Array as="points">
              <mxPoint x="398" y="160" />
            </Array>
          </mxGeometry>
        </mxCell>
        <mxCell id="-nnjuojDJIeQV_9DqMVr-107" value="&lt;font style=&quot;font-size: 14px;&quot;&gt;PU1_CTRL&lt;/font&gt;" style="text;html=1;align=center;verticalAlign=middle;resizable=0;points=[];autosize=1;strokeColor=none;fillColor=none;fontSize=16;" parent="1" vertex="1">
          <mxGeometry x="521" y="129" width="90" height="31" as="geometry" />
        </mxCell>
        <mxCell id="-nnjuojDJIeQV_9DqMVr-108" value="" style="endArrow=classic;html=1;rounded=0;strokeWidth=1.5;fontSize=14;jumpStyle=arc;exitX=0.681;exitY=1.005;exitDx=0;exitDy=0;exitPerimeter=0;entryX=1.022;entryY=1.034;entryDx=0;entryDy=0;entryPerimeter=0;" parent="1" source="z9EmH8EO0fscNHD9WSlw-5" target="-nnjuojDJIeQV_9DqMVr-109" edge="1">
          <mxGeometry width="50" height="50" relative="1" as="geometry">
            <mxPoint x="627" y="348" as="sourcePoint" />
            <mxPoint x="613" y="295" as="targetPoint" />
            <Array as="points">
              <mxPoint x="473" y="295" />
            </Array>
          </mxGeometry>
        </mxCell>
        <mxCell id="-nnjuojDJIeQV_9DqMVr-109" value="&lt;font style=&quot;font-size: 14px;&quot;&gt;PU2_CTRL&lt;/font&gt;" style="text;html=1;align=center;verticalAlign=middle;resizable=0;points=[];autosize=1;strokeColor=none;fillColor=none;fontSize=16;" parent="1" vertex="1">
          <mxGeometry x="516" y="264" width="90" height="31" as="geometry" />
        </mxCell>
        <mxCell id="-nnjuojDJIeQV_9DqMVr-112" value="PU1_SEL" style="text;html=1;strokeColor=none;fillColor=none;align=center;verticalAlign=middle;whiteSpace=wrap;rounded=0;fontSize=14;" parent="1" vertex="1">
          <mxGeometry x="379.75" y="322" width="60" height="30" as="geometry" />
        </mxCell>
        <mxCell id="-nnjuojDJIeQV_9DqMVr-113" value="" style="endArrow=classic;html=1;rounded=0;strokeWidth=1.5;fontSize=14;jumpStyle=arc;entryX=1;entryY=0.5;entryDx=0;entryDy=0;exitX=0.5;exitY=0;exitDx=0;exitDy=0;" parent="1" source="-nnjuojDJIeQV_9DqMVr-112" target="-nnjuojDJIeQV_9DqMVr-33" edge="1">
          <mxGeometry width="50" height="50" relative="1" as="geometry">
            <mxPoint x="557" y="321" as="sourcePoint" />
            <mxPoint x="607" y="271" as="targetPoint" />
          </mxGeometry>
        </mxCell>
        <mxCell id="-nnjuojDJIeQV_9DqMVr-115" value="PU2_SEL" style="text;html=1;strokeColor=none;fillColor=none;align=center;verticalAlign=middle;whiteSpace=wrap;rounded=0;fontSize=14;" parent="1" vertex="1">
          <mxGeometry x="486.5" y="430" width="59" height="30" as="geometry" />
        </mxCell>
        <mxCell id="-nnjuojDJIeQV_9DqMVr-116" value="" style="endArrow=classic;html=1;rounded=0;strokeWidth=1.5;fontSize=14;jumpStyle=arc;exitX=0.5;exitY=0;exitDx=0;exitDy=0;" parent="1" source="-nnjuojDJIeQV_9DqMVr-115" edge="1">
          <mxGeometry width="50" height="50" relative="1" as="geometry">
            <mxPoint x="663.25" y="429.75" as="sourcePoint" />
            <mxPoint x="516" y="394" as="targetPoint" />
          </mxGeometry>
        </mxCell>
        <mxCell id="pK8zRwszBanWCM-Fg7gK-2" value="" style="endArrow=classic;html=1;rounded=0;fontSize=12;startSize=8;endSize=8;curved=0;strokeWidth=1.5;entryX=0.002;entryY=0.551;entryDx=0;entryDy=0;entryPerimeter=0;" parent="1" edge="1">
          <mxGeometry width="50" height="50" relative="1" as="geometry">
            <mxPoint x="611" y="12.92" as="sourcePoint" />
            <mxPoint x="1309.2240000000002" y="11.001000000000017" as="targetPoint" />
          </mxGeometry>
        </mxCell>
        <mxCell id="pK8zRwszBanWCM-Fg7gK-6" style="edgeStyle=orthogonalEdgeStyle;rounded=0;orthogonalLoop=1;jettySize=auto;html=1;entryX=0.941;entryY=0.571;entryDx=0;entryDy=0;entryPerimeter=0;" parent="1" edge="1">
          <mxGeometry relative="1" as="geometry">
            <mxPoint x="1167" y="106" as="sourcePoint" />
            <mxPoint x="1167" y="106" as="targetPoint" />
          </mxGeometry>
        </mxCell>
        <mxCell id="pK8zRwszBanWCM-Fg7gK-7" value="&lt;font style=&quot;font-size: 16px;&quot;&gt;DONE&lt;/font&gt;" style="text;html=1;align=center;verticalAlign=middle;resizable=0;points=[];autosize=1;strokeColor=none;fillColor=none;" parent="1" vertex="1">
          <mxGeometry x="1308" y="-3" width="64" height="31" as="geometry" />
        </mxCell>
        <mxCell id="pK8zRwszBanWCM-Fg7gK-12" value="&lt;span style=&quot;font-size: 14px;&quot;&gt;PU_OUT&lt;/span&gt;" style="text;html=1;align=center;verticalAlign=middle;resizable=0;points=[];autosize=1;strokeColor=none;fillColor=none;fontSize=16;" parent="1" vertex="1">
          <mxGeometry x="757" y="291" width="75" height="31" as="geometry" />
        </mxCell>
        <mxCell id="pK8zRwszBanWCM-Fg7gK-13" value="" style="endArrow=none;html=1;rounded=0;strokeWidth=1.5;fontSize=15;jumpStyle=arc;exitX=1.014;exitY=0.434;exitDx=0;exitDy=0;exitPerimeter=0;entryDx=0;entryDy=0;" parent="1" source="z9EmH8EO0fscNHD9WSlw-4" target="pK8zRwszBanWCM-Fg7gK-8" edge="1">
          <mxGeometry width="50" height="50" relative="1" as="geometry">
            <mxPoint x="767.156" y="180.60800000000017" as="sourcePoint" />
            <mxPoint x="919.5" y="181" as="targetPoint" />
          </mxGeometry>
        </mxCell>
        <mxCell id="pK8zRwszBanWCM-Fg7gK-8" value="" style="shape=waypoint;sketch=0;fillStyle=solid;size=6;pointerEvents=1;points=[];fillColor=none;resizable=0;rotatable=0;perimeter=centerPerimeter;snapToPoint=1;strokeWidth=2;" parent="1" vertex="1">
          <mxGeometry x="840" y="171" width="20" height="20" as="geometry" />
        </mxCell>
        <mxCell id="pK8zRwszBanWCM-Fg7gK-15" value="" style="endArrow=none;html=1;rounded=0;strokeWidth=1.5;fontSize=15;jumpStyle=arc;entryDx=0;entryDy=0;entryPerimeter=0;exitX=1.001;exitY=0.421;exitDx=0;exitDy=0;exitPerimeter=0;" parent="1" source="-nnjuojDJIeQV_9DqMVr-7" target="pK8zRwszBanWCM-Fg7gK-14" edge="1">
          <mxGeometry width="50" height="50" relative="1" as="geometry">
            <mxPoint x="762.154" y="328.15200000000004" as="sourcePoint" />
            <mxPoint x="922.9970000000003" y="192.16000000000008" as="targetPoint" />
            <Array as="points" />
          </mxGeometry>
        </mxCell>
        <mxCell id="pK8zRwszBanWCM-Fg7gK-14" value="" style="shape=waypoint;sketch=0;fillStyle=solid;size=6;pointerEvents=1;points=[];fillColor=none;resizable=0;rotatable=0;perimeter=centerPerimeter;snapToPoint=1;strokeWidth=2;" parent="1" vertex="1">
          <mxGeometry x="840" y="318" width="20" height="20" as="geometry" />
        </mxCell>
        <mxCell id="pK8zRwszBanWCM-Fg7gK-16" value="" style="endArrow=classic;html=1;rounded=0;fontSize=16;strokeWidth=1.5;entryX=0.5;entryY=0;entryDx=0;entryDy=0;" parent="1" source="pK8zRwszBanWCM-Fg7gK-8" target="pK8zRwszBanWCM-Fg7gK-17" edge="1">
          <mxGeometry width="50" height="50" relative="1" as="geometry">
            <mxPoint x="854" y="339" as="sourcePoint" />
            <mxPoint x="904" y="289" as="targetPoint" />
          </mxGeometry>
        </mxCell>
        <mxCell id="pK8zRwszBanWCM-Fg7gK-17" value="&lt;b&gt;+&lt;/b&gt;" style="ellipse;whiteSpace=wrap;html=1;aspect=fixed;fontSize=16;" parent="1" vertex="1">
          <mxGeometry x="826" y="227" width="48" height="48" as="geometry" />
        </mxCell>
        <mxCell id="pK8zRwszBanWCM-Fg7gK-18" value="" style="endArrow=classic;html=1;rounded=0;fontSize=16;strokeWidth=1.5;entryX=0.5;entryY=1;entryDx=0;entryDy=0;" parent="1" source="pK8zRwszBanWCM-Fg7gK-14" target="pK8zRwszBanWCM-Fg7gK-17" edge="1">
          <mxGeometry width="50" height="50" relative="1" as="geometry">
            <mxPoint x="870" y="328" as="sourcePoint" />
            <mxPoint x="860" y="238" as="targetPoint" />
          </mxGeometry>
        </mxCell>
        <mxCell id="pK8zRwszBanWCM-Fg7gK-19" value="" style="endArrow=classic;html=1;rounded=0;strokeWidth=1.5;fontSize=16;jumpStyle=arc;exitX=1;exitY=0.5;exitDx=0;exitDy=0;entryX=-0.013;entryY=0.613;entryDx=0;entryDy=0;entryPerimeter=0;" parent="1" source="pK8zRwszBanWCM-Fg7gK-17" target="-nnjuojDJIeQV_9DqMVr-25" edge="1">
          <mxGeometry width="50" height="50" relative="1" as="geometry">
            <mxPoint x="867" y="295" as="sourcePoint" />
            <mxPoint x="1312" y="253" as="targetPoint" />
          </mxGeometry>
        </mxCell>
        <mxCell id="pK8zRwszBanWCM-Fg7gK-22" value="" style="endArrow=classic;html=1;rounded=0;strokeWidth=1.5;fontSize=16;jumpStyle=arc;exitX=0.992;exitY=0.187;exitDx=0;exitDy=0;exitPerimeter=0;entryX=1;entryY=0.5;entryDx=0;entryDy=0;" parent="1" source="z9EmH8EO0fscNHD9WSlw-6" target="YjfATVuAR8jBf-zQzsOv-16" edge="1">
          <mxGeometry width="50" height="50" relative="1" as="geometry">
            <mxPoint x="945" y="261" as="sourcePoint" />
            <mxPoint x="1164" y="400" as="targetPoint" />
            <Array as="points">
              <mxPoint x="1162" y="107" />
              <mxPoint x="1162" y="507" />
            </Array>
          </mxGeometry>
        </mxCell>
        <mxCell id="pK8zRwszBanWCM-Fg7gK-23" value="&lt;font style=&quot;font-size: 21px;&quot;&gt;/&lt;/font&gt;" style="edgeLabel;html=1;align=center;verticalAlign=middle;resizable=0;points=[];" parent="1" vertex="1" connectable="0">
          <mxGeometry x="512.9987867492489" y="187.00117622311373" as="geometry">
            <mxPoint x="268" y="-5" as="offset" />
          </mxGeometry>
        </mxCell>
        <mxCell id="pK8zRwszBanWCM-Fg7gK-24" value="&lt;font style=&quot;font-size: 21px;&quot;&gt;/&lt;/font&gt;" style="edgeLabel;html=1;align=center;verticalAlign=middle;resizable=0;points=[];" parent="1" vertex="1" connectable="0">
          <mxGeometry x="511.2487867492489" y="333.0011762231137" as="geometry">
            <mxPoint x="268" y="-5" as="offset" />
          </mxGeometry>
        </mxCell>
        <mxCell id="pK8zRwszBanWCM-Fg7gK-25" value="&lt;font style=&quot;font-size: 21px;&quot;&gt;/&lt;/font&gt;" style="edgeLabel;html=1;align=center;verticalAlign=middle;resizable=0;points=[];" parent="1" vertex="1" connectable="0">
          <mxGeometry x="855.9987867492489" y="113.00117622311373" as="geometry">
            <mxPoint x="268" y="-5" as="offset" />
          </mxGeometry>
        </mxCell>
        <mxCell id="pK8zRwszBanWCM-Fg7gK-26" value="&lt;font style=&quot;font-size: 21px;&quot;&gt;/&lt;/font&gt;" style="edgeLabel;html=1;align=center;verticalAlign=middle;resizable=0;points=[];" parent="1" vertex="1" connectable="0">
          <mxGeometry x="1010.9987867492489" y="256.0011762231137" as="geometry">
            <mxPoint x="268" y="-5" as="offset" />
          </mxGeometry>
        </mxCell>
        <mxCell id="pK8zRwszBanWCM-Fg7gK-27" value="&lt;span style=&quot;font-size: 15px;&quot;&gt;256&lt;/span&gt;" style="text;html=1;align=center;verticalAlign=middle;resizable=0;points=[];autosize=1;strokeColor=none;fillColor=none;" parent="1" vertex="1">
          <mxGeometry x="1258" y="251" width="43" height="30" as="geometry" />
        </mxCell>
      </root>
    </mxGraphModel>
  </diagram>
</mxfile>
